<svg xmlns="http://www.w3.org/2000/svg" width="85.511" height="75.716" viewBox="0 0 85.511 75.716">
  <path id="favorited" d="M70.473,6.131A19.881,19.881,0,0,0,60.11,3.253c-7.358,0-14.311,3.932-19.577,11.071l-.3.406-.3-.406C34.661,7.185,27.706,3.253,20.35,3.253A19.852,19.852,0,0,0,9.993,6.131C.586,11.852-4.745,25.951,5.771,43.381c1.062,1.676,11.044,16.777,34.02,30.463a.834.834,0,0,0,.441.125.852.852,0,0,0,.448-.128C64.138,59.858,74.274,44.025,74.691,43.363,85.218,25.945,79.884,11.853,70.473,6.131Z" transform="translate(2.522 -0.753)" fill="#d10000" stroke="#d10000" stroke-width="5"/>
</svg>
