<svg xmlns="http://www.w3.org/2000/svg" width="85.511" height="75.716" viewBox="0 0 85.511 75.716">
  <g id="favorite" transform="translate(2.521 2.5)">
    <path id="Path_2" data-name="Path 2" d="M70.473,6.131A19.881,19.881,0,0,0,60.11,3.253c-7.358,0-14.311,3.932-19.577,11.071l-.3.406-.3-.406C34.661,7.185,27.706,3.253,20.35,3.253A19.852,19.852,0,0,0,9.993,6.131C.586,11.852-4.745,25.951,5.771,43.381c1.062,1.676,11.044,16.777,34.02,30.463a.834.834,0,0,0,.441.125.852.852,0,0,0,.448-.128C64.138,59.858,74.274,44.025,74.691,43.363,85.218,25.945,79.884,11.853,70.473,6.131Z" transform="translate(0 -3.253)" fill="none" stroke="#d10000" stroke-width="5"/>
    <path id="Path_5" data-name="Path 5" d="M21.333,12.667c0,.8-.069,1.444-.868,1.444H14.111v6.354c0,.8-.646.868-1.444.868s-1.444-.071-1.444-.868V14.111H4.868c-.8,0-.868-.646-.868-1.444s.071-1.444.868-1.444h6.354V4.868c0-.8.646-.868,1.444-.868s1.444.069,1.444.868v6.354h6.354C21.264,11.222,21.333,11.868,21.333,12.667Z" transform="translate(27.5 22.5)" fill="#d10000"/>
  </g>
</svg>
